<svg width="15" height="14" viewBox="0 0 15 14" fill="none" xmlns="http://www.w3.org/2000/svg">
<path fill-rule="evenodd" clip-rule="evenodd" d="M4.40481 1.78613C2.93306 1.78613 1.80957 2.87839 1.80957 4.14328V9.85756C1.80957 11.1224 2.93306 12.2147 4.40481 12.2147H10.5953C12.067 12.2147 13.1905 11.1224 13.1905 9.85756V4.14328C13.1905 2.87839 12.067 1.78613 10.5953 1.78613H4.40481ZM0.80957 4.14328C0.80957 2.25225 2.45765 0.786133 4.40481 0.786133H10.5953C12.5424 0.786133 14.1905 2.25225 14.1905 4.14328V9.85756C14.1905 11.7486 12.5424 13.2147 10.5953 13.2147H4.40481C2.45765 13.2147 0.80957 11.7486 0.80957 9.85756V4.14328ZM7.82224 5.20998C7.40246 5.15252 6.9751 5.21915 6.60236 5.39768C6.22992 5.57606 5.93537 5.85467 5.75399 6.18732C5.57305 6.51916 5.51164 6.89136 5.57466 7.25285C5.63775 7.61479 5.82393 7.95572 6.11504 8.22443C6.40668 8.49364 6.78808 8.67549 7.2069 8.7377C7.6258 8.79992 8.05411 8.7382 8.42942 8.56382C8.80444 8.38958 9.10293 8.11414 9.28889 7.78332C9.47441 7.45329 9.54073 7.08169 9.48256 6.71962C9.42317 6.34989 9.23555 6.00083 8.93862 5.72675C8.64111 5.45212 8.2504 5.26858 7.82224 5.20998ZM6.17038 4.49579C6.72225 4.23147 7.34723 4.13563 7.95785 4.21922C8.58074 4.30448 9.16308 4.57303 9.6169 4.99194C10.0713 5.41139 10.3734 5.96053 10.4699 6.56101C10.5645 7.15007 10.4549 7.74986 10.1606 8.27333C9.86682 8.79598 9.40621 9.21266 8.85078 9.47072C8.29564 9.72864 7.66951 9.81739 7.05997 9.72685C6.45036 9.6363 5.88168 9.36994 5.43676 8.95923C4.9913 8.54804 4.69191 8.01197 4.58952 7.42459C4.48704 6.83675 4.58865 6.23563 4.87603 5.70859C5.16297 5.18236 5.61821 4.76026 6.17038 4.49579ZM10.9048 3.35756C10.6287 3.35756 10.4048 3.58142 10.4048 3.85756C10.4048 4.1337 10.6287 4.35756 10.9048 4.35756H10.9107C11.1869 4.35756 11.4107 4.1337 11.4107 3.85756C11.4107 3.58142 11.1869 3.35756 10.9107 3.35756H10.9048Z" fill="black"/>
</svg>
