<svg width="14" height="14" viewBox="0 0 14 14" fill="none" xmlns="http://www.w3.org/2000/svg">
<path d="M13.4168 1.75001C12.8582 2.14403 12.2397 2.4454 11.5852 2.64251C11.2338 2.23855 10.7669 1.95224 10.2476 1.8223C9.72826 1.69235 9.18154 1.72504 8.68138 1.91594C8.18122 2.10684 7.75175 2.44674 7.45107 2.88967C7.15038 3.33261 6.99299 3.8572 7.00016 4.39251V4.97584C5.97503 5.00242 4.95924 4.77506 4.04325 4.31402C3.12726 3.85297 2.33951 3.17254 1.75016 2.33334C1.75016 2.33334 -0.583171 7.58334 4.66683 9.91667C3.46547 10.7322 2.03434 11.141 0.583496 11.0833C5.8335 14 12.2502 11.0833 12.2502 4.37501C12.2496 4.21252 12.234 4.05044 12.2035 3.89084C12.7988 3.30371 13.219 2.56242 13.4168 1.75001V1.75001Z" stroke="black" stroke-linecap="round" stroke-linejoin="round"/>
</svg>
