<svg width="17" height="14" viewBox="0 0 17 14" fill="none" xmlns="http://www.w3.org/2000/svg">
<g clip-path="url(#clip0_251_3959)">
<path d="M15.5813 2.99321C15.4983 2.63507 15.3295 2.30692 15.0918 2.04192C14.854 1.77692 14.5558 1.58445 14.2273 1.48394C13.0269 1.16699 8.22527 1.16699 8.22527 1.16699C8.22527 1.16699 3.42364 1.16699 2.22324 1.51412C1.89469 1.61463 1.5965 1.8071 1.35877 2.07211C1.12104 2.33711 0.952193 2.66525 0.86929 3.0234C0.649597 4.34065 0.542134 5.67693 0.548251 7.01542C0.540419 8.36399 0.64789 9.71045 0.86929 11.0376C0.960687 11.3846 1.13331 11.7003 1.37049 11.9541C1.60767 12.2079 1.90137 12.3913 2.22324 12.4865C3.42364 12.8337 8.22527 12.8337 8.22527 12.8337C8.22527 12.8337 13.0269 12.8337 14.2273 12.4865C14.5558 12.386 14.854 12.1935 15.0918 11.9285C15.3295 11.6635 15.4983 11.3354 15.5813 10.9773C15.7993 9.66992 15.9067 8.34383 15.9023 7.01542C15.9101 5.66685 15.8027 4.32039 15.5813 2.99321V2.99321Z" stroke="black" stroke-linecap="round" stroke-linejoin="round"/>
<path d="M6.58057 9.33366L10.9677 7.00033L6.58057 4.66699V9.33366Z" stroke="black" stroke-linecap="round" stroke-linejoin="round"/>
</g>
<defs>
<clipPath id="clip0_251_3959">
<rect width="17" height="14" fill="white"/>
</clipPath>
</defs>
</svg>
