<svg width="24" height="21" viewBox="0 0 24 21" fill="none" xmlns="http://www.w3.org/2000/svg">
<g clip-path="url(#clip0_109_3960)">
<path d="M21.4242 2.52429C20.8797 1.99576 20.2331 1.5765 19.5215 1.29046C18.8099 1.00441 18.0472 0.857178 17.2769 0.857178C16.5066 0.857178 15.7439 1.00441 15.0323 1.29046C14.3207 1.5765 13.6742 1.99576 13.1296 2.52429L11.9995 3.62064L10.8694 2.52429C9.76946 1.45721 8.27764 0.857731 6.7221 0.857731C5.16656 0.857731 3.67473 1.45721 2.5748 2.52429C1.47487 3.59136 0.856934 5.03863 0.856934 6.54771C0.856934 8.05678 1.47487 9.50405 2.5748 10.5711L3.70491 11.6675L11.9995 19.7143L20.2941 11.6675L21.4242 10.5711C21.969 10.0429 22.4012 9.41562 22.696 8.72527C22.9909 8.03492 23.1426 7.29497 23.1426 6.54771C23.1426 5.80044 22.9909 5.06049 22.696 4.37014C22.4012 3.67979 21.969 3.05256 21.4242 2.52429V2.52429Z" stroke="black" stroke-linecap="round" stroke-linejoin="round"/>
</g>
<defs>
<clipPath id="clip0_109_3960">
<rect width="24" height="20.5714" fill="white"/>
</clipPath>
</defs>
</svg>
