<svg width="40" height="40" viewBox="0 0 40 40" fill="none" xmlns="http://www.w3.org/2000/svg">
<path d="M26.568 13.4689L33.1267 20.0276L28.2077 24.9466L21.649 18.3879L26.568 13.4689ZM33.1267 6.91019L38.0328 11.8163C38.9455 12.729 38.9455 14.2088 38.0328 15.1215L33.1267 20.0276L26.568 13.4689L33.1267 6.91019ZM20.0093 6.91019L26.568 13.4689L21.649 18.3879L15.0903 11.8292L20.0093 6.91019ZM28.2206 2.00412L33.1267 6.91019L26.568 13.4689L20.0093 6.91019L24.9154 2.00412C25.8281 1.0914 27.3079 1.0914 28.2206 2.00412ZM28.1947 24.9337C29.1074 25.8464 29.1074 27.3262 28.1947 28.2389L24.9283 31.5053L24.1068 29.0449L15.1032 38.0511C14.1905 38.9638 12.7107 38.9638 11.798 38.0511L1.98581 28.2389C1.07309 27.3262 1.07309 25.8464 1.98581 24.9337L10.9905 15.9287L8.53156 15.1086L11.798 11.8422C12.7107 10.9294 14.1905 10.9294 15.1032 11.8422L28.1947 24.9337ZM15.1032 11.8422L28.1947 24.9337C29.1074 25.8464 29.1074 27.3262 28.1947 28.2389L24.9283 31.5053L23.2886 26.5863L16.7299 23.3069L13.4506 16.7482L8.53156 15.1086L11.798 11.8422C12.7107 10.9294 14.1905 10.9294 15.1032 11.8422Z" stroke="black" stroke-width="1.55963" stroke-linejoin="round"/>
</svg>
