<svg width="40" height="36" viewBox="0 0 40 36" fill="none" xmlns="http://www.w3.org/2000/svg">
<path d="M34.2263 22.5075C34.2263 22.0734 34.0932 21.6703 33.8657 21.3386C34.1013 20.3806 34.2263 19.3791 34.2263 18.3485C34.2263 11.4576 28.6401 5.87142 21.7492 5.87142H17.5902C15.9814 5.87142 14.4437 6.17592 13.0351 6.72986C12.6571 6.20965 12.0439 5.87142 11.3517 5.87142M34.2263 22.5075C34.2263 23.5064 33.5219 24.3409 32.5828 24.5412C30.4328 28.2958 26.3864 30.8256 21.7492 30.8256H17.5902C15.9814 30.8256 14.4437 30.5211 13.0316 29.9666C12.6571 30.4873 12.0439 30.8256 11.3517 30.8256M34.2263 22.5075C34.2263 21.359 33.2952 20.428 32.1468 20.428C30.9983 20.428 30.0673 21.359 30.0673 22.5075C30.0673 23.656 30.9983 24.587 32.1468 24.587C33.2952 24.587 34.2263 23.656 34.2263 22.5075ZM11.3517 30.8256C10.2032 30.8256 9.27214 29.8945 9.27214 28.746M11.3517 30.8256C12.5001 30.8256 13.4312 29.8945 13.4312 28.746C13.4312 27.5976 12.5001 26.6665 11.3517 26.6665C10.2032 26.6665 9.27214 27.5976 9.27214 28.746M9.27214 28.746C9.27214 28.4179 9.34815 28.1075 9.48351 27.8315L9.40432 27.7651C6.77512 25.4776 5.11312 22.1072 5.11312 18.3485C5.11312 14.5898 6.77512 11.2193 9.40432 8.93184L9.48351 8.86545C9.34815 8.58946 9.27214 8.27907 9.27214 7.95093M9.27214 7.95093C9.27214 6.80245 10.2032 5.87142 11.3517 5.87142M9.27214 7.95093C9.27214 9.09942 10.2032 10.0304 11.3517 10.0304C12.5001 10.0304 13.4312 9.09942 13.4312 7.95093C13.4312 6.80245 12.5001 5.87142 11.3517 5.87142M19.6697 5.87142C24.2636 5.87142 27.9877 9.59554 27.9877 14.1895V15.2292V16.269C27.9877 20.8629 24.2636 24.587 19.6697 24.587H18.2834C14.4551 24.587 11.3517 21.7939 11.3517 18.3485C11.3517 14.903 13.6792 12.11 16.5504 12.11C19.4216 12.11 21.7492 14.903 21.7492 18.3485M24.081 16.5213C22.9521 17.6502 21.3924 18.3485 19.6697 18.3485C17.947 18.3485 16.3873 17.6502 15.2584 16.5213M15.5107 1.7124H23.8287C31.8681 1.7124 38.3853 8.2296 38.3853 16.269V20.428C38.3853 28.4674 31.8681 34.9846 23.8287 34.9846H15.5107C7.4713 34.9846 0.954102 28.4674 0.954102 20.428V16.269C0.954102 8.2296 7.4713 1.7124 15.5107 1.7124Z" stroke="black" stroke-width="1.55963" stroke-linejoin="round"/>
</svg>
