<svg width="26" height="30" viewBox="0 0 26 30" fill="none" xmlns="http://www.w3.org/2000/svg">
<path d="M12.8 19.8492C12.8179 20.3215 12.8849 20.7907 13 21.2492C13.4193 22.6478 13.2758 24.1549 12.6 25.4492C12.0547 26.4345 11.2589 27.2585 10.2933 27.8379C9.32755 28.4173 8.22606 28.7317 7.10001 28.7492C5.98652 28.7348 4.89744 28.4207 3.94724 27.8401C2.99704 27.2594 2.22077 26.4335 1.69999 25.4492C1.03775 24.1536 0.860417 22.664 1.19999 21.2492L1.50004 19.8492C2.70004 13.3492 2.70004 16.4492 1.50004 9.94919L1.19999 8.6492C0.963018 7.74671 0.936262 6.80188 1.12174 5.88742C1.30722 4.97296 1.69999 4.11325 2.26987 3.37442C2.83975 2.63559 3.57154 2.03734 4.40891 1.6257C5.24628 1.21406 6.16693 1 7.10001 1C8.03309 1 8.95374 1.21406 9.79111 1.6257C10.6285 2.03734 11.3603 2.63559 11.9302 3.37442C12.5 4.11325 12.8928 4.97296 13.0783 5.88742C13.2638 6.80188 13.237 7.74671 13 8.6492C12.8851 9.07373 12.818 9.50976 12.8 9.94919C11.6 16.2492 11.6 13.6492 12.8 19.8492Z" stroke="black" stroke-width="1.5" stroke-linecap="round" stroke-linejoin="round"/>
<path d="M18.3 20.7492C19.7309 20.0209 20.9917 18.9986 22.0001 17.7492C25.2001 14.2492 25.9 9.84918 23.8 7.94918C21.7 6.04918 18.9 7.14918 16.1 9.44918" stroke="black" stroke-width="1.5" stroke-linecap="round" stroke-linejoin="round"/>
<path d="M24.2 8.74918L16.7 15.2492" stroke="black" stroke-width="1.5" stroke-linecap="round" stroke-linejoin="round"/>
</svg>
