<svg width="23" height="29" viewBox="0 0 23 29" fill="none" xmlns="http://www.w3.org/2000/svg">
<path d="M17.8015 8L19.7015 3.70001L14.4015 5.59998L11.3015 1L8.10153 5.59998L2.90152 3.70001L4.80151 8" stroke="black" stroke-width="1.5" stroke-linecap="round" stroke-linejoin="round"/>
<path d="M11.2015 14.4V15.8" stroke="black" stroke-width="1.5" stroke-linecap="round" stroke-linejoin="round"/>
<path d="M6.10153 13.2V14.7" stroke="black" stroke-width="1.5" stroke-linecap="round" stroke-linejoin="round"/>
<path d="M16.3015 13.2V14.7" stroke="black" stroke-width="1.5" stroke-linecap="round" stroke-linejoin="round"/>
<path d="M13.8015 18.4V19.9" stroke="black" stroke-width="1.5" stroke-linecap="round" stroke-linejoin="round"/>
<path d="M8.50153 18.4V19.9" stroke="black" stroke-width="1.5" stroke-linecap="round" stroke-linejoin="round"/>
<path d="M8.90151 26.4C9.19226 26.7557 9.55841 27.0422 9.97347 27.239C10.3885 27.4358 10.8422 27.5378 11.3015 27.5378C11.7609 27.5378 12.2145 27.4358 12.6295 27.239C13.0446 27.0422 13.4108 26.7557 13.7015 26.4L19.5015 19.8C20.849 18.2447 21.5941 16.2578 21.6015 14.2C21.6148 13.3989 21.4701 12.6031 21.1757 11.8579C20.8813 11.1128 20.443 10.4329 19.8858 9.85712C19.3287 9.28137 18.6635 8.82103 17.9284 8.50238C17.1933 8.18373 16.4026 8.01303 15.6015 8H7.00152C6.20042 8.01303 5.40973 8.18373 4.67462 8.50238C3.93951 8.82103 3.27439 9.28137 2.71722 9.85712C2.16005 10.4329 1.72174 11.1128 1.42736 11.8579C1.13298 12.6031 0.988279 13.3989 1.00152 14.2C0.96151 16.2662 1.71278 18.2696 3.10153 19.8L8.90151 26.4Z" stroke="black" stroke-width="1.5" stroke-linecap="round" stroke-linejoin="round"/>
</svg>
