<svg width="30" height="30" viewBox="0 0 30 30" fill="none" xmlns="http://www.w3.org/2000/svg">
<path d="M29.1 17.9H1V28.62H29.1V17.9Z" stroke="black" stroke-width="1.5" stroke-linecap="round" stroke-linejoin="round"/>
<path d="M25.4 13.7H4.70001V17.91H25.4V13.7Z" stroke="black" stroke-width="1.5" stroke-linecap="round" stroke-linejoin="round"/>
<path d="M10.4 19.9C10.3227 21.0761 9.78705 22.175 8.90818 22.9603C8.0293 23.7457 6.87738 24.1549 5.7 24.1C4.52262 24.1549 3.3707 23.7457 2.49182 22.9603C1.61295 22.175 1.0773 21.0761 1 19.9" stroke="black" stroke-width="1.5" stroke-linecap="round" stroke-linejoin="round"/>
<path d="M19.8 19.9C19.7227 21.0761 19.187 22.175 18.3082 22.9603C17.4293 23.7457 16.2774 24.1549 15.1 24.1C13.9226 24.1549 12.7707 23.7457 11.8918 22.9603C11.0129 22.175 10.4773 21.0761 10.4 19.9" stroke="black" stroke-width="1.5" stroke-linecap="round" stroke-linejoin="round"/>
<path d="M29.1 19.9C29.0227 21.0761 28.487 22.175 27.6082 22.9603C26.7293 23.7457 25.5774 24.1549 24.4 24.1C23.2396 24.1283 22.1131 23.7072 21.2559 22.9245C20.3986 22.1419 19.877 21.0582 19.8 19.9" stroke="black" stroke-width="1.5" stroke-linecap="round" stroke-linejoin="round"/>
<path d="M15.1 10.2V12.7" stroke="black" stroke-width="1.5" stroke-linecap="round" stroke-linejoin="round"/>
<path d="M16.7 8.89999C19.5 6.49999 15.1 1 15.1 1C15.1 1 10.7 6.49999 13.4 8.89999C13.8651 9.28189 14.4482 9.49065 15.05 9.49065C15.6518 9.49065 16.2349 9.28189 16.7 8.89999Z" stroke="black" stroke-width="1.5" stroke-linecap="round" stroke-linejoin="round"/>
</svg>
