<svg width="32" height="32" viewBox="0 0 32 32" fill="none" xmlns="http://www.w3.org/2000/svg">
<path d="M15.6 29.2C23.111 29.2 29.2 23.1111 29.2 15.6C29.2 8.08893 23.111 2 15.6 2C8.0889 2 2 8.08893 2 15.6C2 23.1111 8.0889 29.2 15.6 29.2Z" stroke="black" stroke-width="1.5" stroke-linecap="round" stroke-linejoin="round"/>
<path d="M20.3 23.7C21.4046 23.7 22.3 22.8046 22.3 21.7C22.3 20.5954 21.4046 19.7 20.3 19.7C19.1954 19.7 18.3 20.5954 18.3 21.7C18.3 22.8046 19.1954 23.7 20.3 23.7Z" fill="black"/>
<path d="M8.70001 19.7C9.80458 19.7 10.7 18.8046 10.7 17.7C10.7 16.5954 9.80458 15.7 8.70001 15.7C7.59544 15.7 6.70001 16.5954 6.70001 17.7C6.70001 18.8046 7.59544 19.7 8.70001 19.7Z" fill="black"/>
<path d="M17.7 10C18.8046 10 19.7 9.10457 19.7 8C19.7 6.89543 18.8046 6 17.7 6C16.5954 6 15.7 6.89543 15.7 8C15.7 9.10457 16.5954 10 17.7 10Z" fill="black"/>
<path d="M17.7 16.8C18.3628 16.8 18.9 16.2627 18.9 15.6C18.9 14.9373 18.3628 14.4 17.7 14.4C17.0373 14.4 16.5 14.9373 16.5 15.6C16.5 16.2627 17.0373 16.8 17.7 16.8Z" fill="black"/>
<path d="M23.1 14.7C23.7627 14.7 24.3 14.1627 24.3 13.5C24.3 12.8373 23.7627 12.3 23.1 12.3C22.4372 12.3 21.9 12.8373 21.9 13.5C21.9 14.1627 22.4372 14.7 23.1 14.7Z" fill="black"/>
<path d="M13 23.7C13.6627 23.7 14.2 23.1627 14.2 22.5C14.2 21.8373 13.6627 21.3 13 21.3C12.3373 21.3 11.8 21.8373 11.8 22.5C11.8 23.1627 12.3373 23.7 13 23.7Z" fill="black"/>
<path d="M10.5 12.4C11.1627 12.4 11.7 11.8628 11.7 11.2C11.7 10.5373 11.1627 10 10.5 10C9.83726 10 9.29999 10.5373 9.29999 11.2C9.29999 11.8628 9.83726 12.4 10.5 12.4Z" fill="black"/>
</svg>
