<svg width="30" height="23" viewBox="0 0 30 23" fill="none" xmlns="http://www.w3.org/2000/svg">
<path d="M29.2 8.87407V21.3741H1V8.87407H8V15.5741C8 16.131 8.22125 16.6652 8.61507 17.059C9.0089 17.4528 9.54304 17.6741 10.1 17.6741H10.2C10.4841 17.6876 10.7679 17.6433 11.0344 17.5439C11.3008 17.4444 11.5443 17.2919 11.75 17.0955C11.9557 16.8991 12.1194 16.663 12.2311 16.4015C12.3429 16.14 12.4003 15.8585 12.4 15.5741V8.87407H29.2Z" stroke="black" stroke-width="1.5" stroke-linecap="round" stroke-linejoin="round"/>
<path d="M29.2 8.87407L14.8 2.07408C12.7985 1.05706 10.5108 0.750522 8.31213 1.20478C6.1135 1.65905 4.13456 2.84713 2.7 4.57408C1.69461 5.7926 1.09966 7.29746 1 8.87407" stroke="black" stroke-width="1.5" stroke-linecap="round" stroke-linejoin="round"/>
<path d="M1 15.1741H3.9" stroke="black" stroke-width="1.5" stroke-linecap="round" stroke-linejoin="round"/>
<path d="M16.3 15.1741H29.2" stroke="black" stroke-width="1.5" stroke-linecap="round" stroke-linejoin="round"/>
</svg>
